<svg width="360" height="200" viewBox="0 0 360 200" fill="none" xmlns="http://www.w3.org/2000/svg">
<g clip-path="url(#clip0_1_3)">
<rect width="360" height="200" fill="white"/>
<rect width="360" height="200" rx="12" fill="#192E43"/>
<path d="M30.76 21.344V41H25.972V32.908H18.524V41H13.736V21.344H18.524V29.044H25.972V21.344H30.76ZM33.2645 33.16C33.2645 31.5547 33.5631 30.1453 34.1605 28.932C34.7765 27.7187 35.6071 26.7853 36.6525 26.132C37.6978 25.4787 38.8645 25.152 40.1525 25.152C41.2538 25.152 42.2151 25.376 43.0365 25.824C43.8765 26.272 44.5205 26.86 44.9685 27.588V25.376H49.7565V41H44.9685V38.788C44.5018 39.516 43.8485 40.104 43.0085 40.552C42.1871 41 41.2258 41.224 40.1245 41.224C38.8551 41.224 37.6978 40.8973 36.6525 40.244C35.6071 39.572 34.7765 38.6293 34.1605 37.416C33.5631 36.184 33.2645 34.7653 33.2645 33.16ZM44.9685 33.188C44.9685 31.9933 44.6325 31.0507 43.9605 30.36C43.3071 29.6693 42.5045 29.324 41.5525 29.324C40.6005 29.324 39.7885 29.6693 39.1165 30.36C38.4631 31.032 38.1365 31.9653 38.1365 33.16C38.1365 34.3547 38.4631 35.3067 39.1165 36.016C39.7885 36.7067 40.6005 37.052 41.5525 37.052C42.5045 37.052 43.3071 36.7067 43.9605 36.016C44.6325 35.3253 44.9685 34.3827 44.9685 33.188ZM59.5764 41.224C58.2137 41.224 57.0004 40.9907 55.9364 40.524C54.8724 40.0573 54.0324 39.4227 53.4164 38.62C52.8004 37.7987 52.455 36.884 52.3804 35.876H57.1124C57.1684 36.4173 57.4204 36.856 57.8684 37.192C58.3164 37.528 58.867 37.696 59.5204 37.696C60.1177 37.696 60.575 37.584 60.8924 37.36C61.2284 37.1173 61.3964 36.8093 61.3964 36.436C61.3964 35.988 61.163 35.6613 60.6964 35.456C60.2297 35.232 59.4737 34.9893 58.4284 34.728C57.3084 34.4667 56.375 34.196 55.6284 33.916C54.8817 33.6173 54.2377 33.16 53.6964 32.544C53.155 31.9093 52.8844 31.06 52.8844 29.996C52.8844 29.1 53.127 28.288 53.6124 27.56C54.1164 26.8133 54.8444 26.2253 55.7964 25.796C56.767 25.3667 57.915 25.152 59.2404 25.152C61.2004 25.152 62.7404 25.6373 63.8604 26.608C64.999 27.5787 65.6524 28.8667 65.8204 30.472H61.3964C61.3217 29.9307 61.079 29.5013 60.6684 29.184C60.2764 28.8667 59.7537 28.708 59.1004 28.708C58.5404 28.708 58.111 28.82 57.8124 29.044C57.5137 29.2493 57.3644 29.5387 57.3644 29.912C57.3644 30.36 57.5977 30.696 58.0644 30.92C58.5497 31.144 59.2964 31.368 60.3044 31.592C61.4617 31.8907 62.4044 32.1893 63.1324 32.488C63.8604 32.768 64.495 33.2347 65.0364 33.888C65.5964 34.5227 65.8857 35.3813 65.9044 36.464C65.9044 37.3787 65.643 38.2 65.1204 38.928C64.6164 39.6373 63.879 40.1973 62.9084 40.608C61.9564 41.0187 60.8457 41.224 59.5764 41.224ZM75.1897 41.224C73.827 41.224 72.6137 40.9907 71.5497 40.524C70.4857 40.0573 69.6457 39.4227 69.0297 38.62C68.4137 37.7987 68.0683 36.884 67.9937 35.876H72.7257C72.7817 36.4173 73.0337 36.856 73.4817 37.192C73.9297 37.528 74.4803 37.696 75.1337 37.696C75.731 37.696 76.1883 37.584 76.5057 37.36C76.8417 37.1173 77.0097 36.8093 77.0097 36.436C77.0097 35.988 76.7763 35.6613 76.3097 35.456C75.843 35.232 75.087 34.9893 74.0417 34.728C72.9217 34.4667 71.9883 34.196 71.2417 33.916C70.495 33.6173 69.851 33.16 69.3097 32.544C68.7683 31.9093 68.4977 31.06 68.4977 29.996C68.4977 29.1 68.7403 28.288 69.2257 27.56C69.7297 26.8133 70.4577 26.2253 71.4097 25.796C72.3803 25.3667 73.5283 25.152 74.8537 25.152C76.8137 25.152 78.3537 25.6373 79.4737 26.608C80.6123 27.5787 81.2657 28.8667 81.4337 30.472H77.0097C76.935 29.9307 76.6923 29.5013 76.2817 29.184C75.8897 28.8667 75.367 28.708 74.7137 28.708C74.1537 28.708 73.7243 28.82 73.4257 29.044C73.127 29.2493 72.9777 29.5387 72.9777 29.912C72.9777 30.36 73.211 30.696 73.6777 30.92C74.163 31.144 74.9097 31.368 75.9177 31.592C77.075 31.8907 78.0177 32.1893 78.7457 32.488C79.4737 32.768 80.1083 33.2347 80.6497 33.888C81.2097 34.5227 81.499 35.3813 81.5177 36.464C81.5177 37.3787 81.2563 38.2 80.7337 38.928C80.2297 39.6373 79.4923 40.1973 78.5217 40.608C77.5697 41.0187 76.459 41.224 75.1897 41.224ZM83.4949 33.16C83.4949 31.5547 83.7936 30.1453 84.3909 28.932C85.0069 27.7187 85.8376 26.7853 86.8829 26.132C87.9283 25.4787 89.0949 25.152 90.3829 25.152C91.4843 25.152 92.4456 25.376 93.2669 25.824C94.1069 26.272 94.7509 26.86 95.1989 27.588V25.376H99.9869V41H95.1989V38.788C94.7323 39.516 94.0789 40.104 93.2389 40.552C92.4176 41 91.4563 41.224 90.3549 41.224C89.0856 41.224 87.9283 40.8973 86.8829 40.244C85.8376 39.572 85.0069 38.6293 84.3909 37.416C83.7936 36.184 83.4949 34.7653 83.4949 33.16ZM95.1989 33.188C95.1989 31.9933 94.8629 31.0507 94.1909 30.36C93.5376 29.6693 92.7349 29.324 91.7829 29.324C90.8309 29.324 90.0189 29.6693 89.3469 30.36C88.6936 31.032 88.3669 31.9653 88.3669 33.16C88.3669 34.3547 88.6936 35.3067 89.3469 36.016C90.0189 36.7067 90.8309 37.052 91.7829 37.052C92.7349 37.052 93.5376 36.7067 94.1909 36.016C94.8629 35.3253 95.1989 34.3827 95.1989 33.188ZM102.499 33.16C102.499 31.5547 102.798 30.1453 103.395 28.932C104.011 27.7187 104.842 26.7853 105.887 26.132C106.932 25.4787 108.099 25.152 109.387 25.152C110.488 25.152 111.45 25.376 112.271 25.824C113.111 26.272 113.755 26.86 114.203 27.588V25.376H118.991V41H114.203V38.788C113.736 39.516 113.083 40.104 112.243 40.552C111.422 41 110.46 41.224 109.359 41.224C108.09 41.224 106.932 40.8973 105.887 40.244C104.842 39.572 104.011 38.6293 103.395 37.416C102.798 36.184 102.499 34.7653 102.499 33.16ZM114.203 33.188C114.203 31.9933 113.867 31.0507 113.195 30.36C112.542 29.6693 111.739 29.324 110.787 29.324C109.835 29.324 109.023 29.6693 108.351 30.36C107.698 31.032 107.371 31.9653 107.371 33.16C107.371 34.3547 107.698 35.3067 108.351 36.016C109.023 36.7067 109.835 37.052 110.787 37.052C111.739 37.052 112.542 36.7067 113.195 36.016C113.867 35.3253 114.203 34.3827 114.203 33.188ZM131.975 25.208C133.804 25.208 135.26 25.8053 136.343 27C137.444 28.176 137.995 29.8 137.995 31.872V41H133.235V32.516C133.235 31.4707 132.964 30.6587 132.423 30.08C131.881 29.5013 131.153 29.212 130.239 29.212C129.324 29.212 128.596 29.5013 128.055 30.08C127.513 30.6587 127.243 31.4707 127.243 32.516V41H122.455V25.376H127.243V27.448C127.728 26.7573 128.381 26.216 129.203 25.824C130.024 25.4133 130.948 25.208 131.975 25.208Z" fill="white"/>
<path d="M13.233 61V50.8182H19.3381V51.9119H14.4659V55.3523H18.8807V56.446H14.4659V61H13.233ZM21.2086 61V53.3636H22.3422V54.517H22.4217C22.5609 54.1392 22.8128 53.8326 23.1774 53.5973C23.542 53.362 23.9529 53.2443 24.4103 53.2443C24.4965 53.2443 24.6042 53.246 24.7335 53.2493C24.8627 53.2526 24.9605 53.2576 25.0268 53.2642V54.4574C24.987 54.4474 24.8959 54.4325 24.7534 54.4126C24.6142 54.3894 24.4667 54.3778 24.3109 54.3778C23.9397 54.3778 23.6083 54.4557 23.3166 54.6115C23.0282 54.764 22.7995 54.9761 22.6305 55.2479C22.4648 55.5163 22.3819 55.8229 22.3819 56.1676V61H21.2086ZM29.2875 61.1591C28.5981 61.1591 27.9932 60.995 27.4728 60.6669C26.9558 60.3388 26.5514 59.8797 26.2598 59.2898C25.9714 58.6998 25.8272 58.0104 25.8272 57.2216C25.8272 56.4261 25.9714 55.7318 26.2598 55.1385C26.5514 54.5452 26.9558 54.0845 27.4728 53.7564C27.9932 53.4283 28.5981 53.2642 29.2875 53.2642C29.9769 53.2642 30.5801 53.4283 31.0971 53.7564C31.6175 54.0845 32.0218 54.5452 32.3102 55.1385C32.6019 55.7318 32.7477 56.4261 32.7477 57.2216C32.7477 58.0104 32.6019 58.6998 32.3102 59.2898C32.0218 59.8797 31.6175 60.3388 31.0971 60.6669C30.5801 60.995 29.9769 61.1591 29.2875 61.1591ZM29.2875 60.1051C29.8111 60.1051 30.242 59.9709 30.5801 59.7024C30.9181 59.4339 31.1684 59.081 31.3308 58.6435C31.4932 58.206 31.5744 57.732 31.5744 57.2216C31.5744 56.7112 31.4932 56.2356 31.3308 55.7947C31.1684 55.3539 30.9181 54.9976 30.5801 54.7259C30.242 54.4541 29.8111 54.3182 29.2875 54.3182C28.7638 54.3182 28.3329 54.4541 27.9949 54.7259C27.6568 54.9976 27.4065 55.3539 27.2441 55.7947C27.0817 56.2356 27.0005 56.7112 27.0005 57.2216C27.0005 57.732 27.0817 58.206 27.2441 58.6435C27.4065 59.081 27.6568 59.4339 27.9949 59.7024C28.3329 59.9709 28.7638 60.1051 29.2875 60.1051ZM35.712 56.4062V61H34.5387V53.3636H35.6722V54.5568H35.7717C35.9506 54.169 36.2224 53.8575 36.587 53.6222C36.9516 53.3835 37.4222 53.2642 37.9989 53.2642C38.516 53.2642 38.9684 53.3703 39.3562 53.5824C39.744 53.7912 40.0456 54.1094 40.261 54.5369C40.4764 54.9612 40.5842 55.4981 40.5842 56.1477V61H39.4109V56.2273C39.4109 55.6274 39.2551 55.16 38.9435 54.8253C38.632 54.4872 38.2044 54.3182 37.6609 54.3182C37.2863 54.3182 36.9516 54.3994 36.6566 54.5618C36.3649 54.7242 36.1346 54.9612 35.9656 55.2727C35.7965 55.5843 35.712 55.9621 35.712 56.4062ZM46.0492 53.3636V54.358H42.0918V53.3636H46.0492ZM43.2452 51.5341H44.4185V58.8125C44.4185 59.1439 44.4666 59.3925 44.5627 59.5582C44.6621 59.7206 44.7881 59.83 44.9405 59.8864C45.0963 59.9394 45.2604 59.9659 45.4327 59.9659C45.562 59.9659 45.668 59.9593 45.7509 59.946C45.8337 59.9295 45.9 59.9162 45.9498 59.9062L46.1884 60.9602C46.1088 60.9901 45.9978 61.0199 45.8553 61.0497C45.7128 61.0829 45.5321 61.0994 45.3134 61.0994C44.9819 61.0994 44.6571 61.0282 44.339 60.8857C44.0241 60.7431 43.7623 60.526 43.5534 60.2344C43.348 59.9427 43.2452 59.5748 43.2452 59.1307V51.5341ZM50.9338 61.1591C50.198 61.1591 49.5633 60.9967 49.0297 60.6719C48.4993 60.3438 48.09 59.8864 47.8017 59.2997C47.5166 58.7098 47.3741 58.0237 47.3741 57.2415C47.3741 56.4593 47.5166 55.7699 47.8017 55.1733C48.09 54.5734 48.4911 54.1061 49.0048 53.7713C49.5218 53.4332 50.1251 53.2642 50.8145 53.2642C51.2122 53.2642 51.6049 53.3305 51.9927 53.4631C52.3805 53.5956 52.7335 53.8111 53.0517 54.1094C53.3699 54.4044 53.6234 54.7955 53.8123 55.2827C54.0012 55.7699 54.0957 56.3698 54.0957 57.0824V57.5795H48.2093V56.5653H52.9025C52.9025 56.1345 52.8163 55.75 52.644 55.4119C52.475 55.0739 52.233 54.8071 51.9181 54.6115C51.6066 54.416 51.2387 54.3182 50.8145 54.3182C50.3471 54.3182 49.9428 54.4342 49.6014 54.6662C49.2633 54.8949 49.0031 55.1932 48.8208 55.5611C48.6386 55.929 48.5474 56.3234 48.5474 56.7443V57.4205C48.5474 57.9972 48.6468 58.486 48.8457 58.8871C49.0479 59.2848 49.3279 59.5881 49.6859 59.7969C50.0439 60.0024 50.4598 60.1051 50.9338 60.1051C51.242 60.1051 51.5204 60.062 51.769 59.9759C52.0209 59.8864 52.238 59.7538 52.4203 59.5781C52.6026 59.3991 52.7434 59.1771 52.8429 58.9119L53.9764 59.2301C53.8571 59.6146 53.6565 59.9527 53.3748 60.2443C53.0931 60.5327 52.7451 60.758 52.3308 60.9205C51.9165 61.0795 51.4508 61.1591 50.9338 61.1591ZM57.0538 56.4062V61H55.8805V53.3636H57.014V54.5568H57.1135C57.2924 54.169 57.5642 53.8575 57.9288 53.6222C58.2934 53.3835 58.764 53.2642 59.3407 53.2642C59.8578 53.2642 60.3102 53.3703 60.698 53.5824C61.0858 53.7912 61.3874 54.1094 61.6028 54.5369C61.8182 54.9612 61.926 55.4981 61.926 56.1477V61H60.7527V56.2273C60.7527 55.6274 60.5969 55.16 60.2853 54.8253C59.9738 54.4872 59.5462 54.3182 59.0027 54.3182C58.6281 54.3182 58.2934 54.3994 57.9984 54.5618C57.7067 54.7242 57.4764 54.9612 57.3074 55.2727C57.1383 55.5843 57.0538 55.9621 57.0538 56.4062ZM66.9535 61.1591C66.3171 61.1591 65.7553 60.9983 65.2681 60.6768C64.7809 60.352 64.3997 59.8946 64.1246 59.3047C63.8496 58.7114 63.712 58.0104 63.712 57.2017C63.712 56.3996 63.8496 55.7036 64.1246 55.1136C64.3997 54.5237 64.7826 54.0679 65.2731 53.7464C65.7636 53.425 66.3304 53.2642 66.9734 53.2642C67.4705 53.2642 67.8633 53.3471 68.1516 53.5128C68.4433 53.6752 68.6654 53.8608 68.8178 54.0696C68.9736 54.2751 69.0946 54.4441 69.1808 54.5767H69.2802V50.8182H70.4535V61H69.32V59.8267H69.1808C69.0946 59.9659 68.9719 60.1416 68.8129 60.3537C68.6538 60.5625 68.4267 60.7498 68.1317 60.9155C67.8368 61.0779 67.444 61.1591 66.9535 61.1591ZM67.1126 60.1051C67.5832 60.1051 67.9809 59.9825 68.3058 59.7372C68.6306 59.4886 68.8775 59.1456 69.0465 58.7081C69.2156 58.2673 69.3001 57.7585 69.3001 57.1818C69.3001 56.6117 69.2172 56.1129 69.0515 55.6854C68.8858 55.2545 68.6405 54.9197 68.3157 54.6811C67.9909 54.4392 67.5898 54.3182 67.1126 54.3182C66.6154 54.3182 66.2011 54.4458 65.8697 54.701C65.5415 54.9529 65.2946 55.2959 65.1289 55.7301C64.9665 56.161 64.8853 56.6449 64.8853 57.1818C64.8853 57.7254 64.9682 58.2192 65.1339 58.6634C65.3029 59.1042 65.5515 59.4555 65.8796 59.7173C66.2111 59.9759 66.622 60.1051 67.1126 60.1051ZM80.0039 61H76.8619V50.8182H80.1431C81.1308 50.8182 81.976 51.022 82.6786 51.4297C83.3813 51.834 83.9199 52.4157 84.2944 53.1747C84.6689 53.9304 84.8562 54.8352 84.8562 55.8892C84.8562 56.9498 84.6673 57.8629 84.2894 58.6286C83.9116 59.3909 83.3614 59.9775 82.6388 60.3885C81.9163 60.7962 81.038 61 80.0039 61ZM78.0948 59.9062H79.9244C80.7662 59.9062 81.4639 59.7438 82.0174 59.419C82.5709 59.0942 82.9835 58.6319 83.2553 58.032C83.5271 57.4321 83.663 56.7178 83.663 55.8892C83.663 55.0672 83.5288 54.3596 83.2603 53.7663C82.9918 53.1697 82.5908 52.7124 82.0572 52.3942C81.5236 52.0727 80.859 51.9119 80.0636 51.9119H78.0948V59.9062ZM89.967 61.1591C89.2312 61.1591 88.5965 60.9967 88.0629 60.6719C87.5326 60.3438 87.1232 59.8864 86.8349 59.2997C86.5498 58.7098 86.4073 58.0237 86.4073 57.2415C86.4073 56.4593 86.5498 55.7699 86.8349 55.1733C87.1232 54.5734 87.5243 54.1061 88.038 53.7713C88.555 53.4332 89.1583 53.2642 89.8477 53.2642C90.2454 53.2642 90.6381 53.3305 91.0259 53.4631C91.4137 53.5956 91.7667 53.8111 92.0849 54.1094C92.4031 54.4044 92.6566 54.7955 92.8455 55.2827C93.0344 55.7699 93.1289 56.3698 93.1289 57.0824V57.5795H87.2425V56.5653H91.9357C91.9357 56.1345 91.8496 55.75 91.6772 55.4119C91.5082 55.0739 91.2662 54.8071 90.9513 54.6115C90.6398 54.416 90.2719 54.3182 89.8477 54.3182C89.3803 54.3182 88.976 54.4342 88.6346 54.6662C88.2965 54.8949 88.0363 55.1932 87.854 55.5611C87.6718 55.929 87.5806 56.3234 87.5806 56.7443V57.4205C87.5806 57.9972 87.68 58.486 87.8789 58.8871C88.0811 59.2848 88.3612 59.5881 88.7191 59.7969C89.0771 60.0024 89.493 60.1051 89.967 60.1051C90.2752 60.1051 90.5536 60.062 90.8022 59.9759C91.0541 59.8864 91.2712 59.7538 91.4535 59.5781C91.6358 59.3991 91.7766 59.1771 91.8761 58.9119L93.0096 59.2301C92.8903 59.6146 92.6897 59.9527 92.408 60.2443C92.1263 60.5327 91.7783 60.758 91.364 60.9205C90.9497 61.0795 90.484 61.1591 89.967 61.1591ZM100.926 53.3636L98.1017 61H96.9086L94.0847 53.3636H95.3574L97.4654 59.4489H97.5449L99.6529 53.3636H100.926ZM105.403 61.1591C104.667 61.1591 104.032 60.9967 103.498 60.6719C102.968 60.3438 102.559 59.8864 102.27 59.2997C101.985 58.7098 101.843 58.0237 101.843 57.2415C101.843 56.4593 101.985 55.7699 102.27 55.1733C102.559 54.5734 102.96 54.1061 103.474 53.7713C103.991 53.4332 104.594 53.2642 105.283 53.2642C105.681 53.2642 106.074 53.3305 106.461 53.4631C106.849 53.5956 107.202 53.8111 107.52 54.1094C107.839 54.4044 108.092 54.7955 108.281 55.2827C108.47 55.7699 108.564 56.3698 108.564 57.0824V57.5795H102.678V56.5653H107.371C107.371 56.1345 107.285 55.75 107.113 55.4119C106.944 55.0739 106.702 54.8071 106.387 54.6115C106.075 54.416 105.707 54.3182 105.283 54.3182C104.816 54.3182 104.412 54.4342 104.07 54.6662C103.732 54.8949 103.472 55.1932 103.29 55.5611C103.107 55.929 103.016 56.3234 103.016 56.7443V57.4205C103.016 57.9972 103.116 58.486 103.314 58.8871C103.517 59.2848 103.797 59.5881 104.155 59.7969C104.513 60.0024 104.929 60.1051 105.403 60.1051C105.711 60.1051 105.989 60.062 106.238 59.9759C106.49 59.8864 106.707 59.7538 106.889 59.5781C107.071 59.3991 107.212 59.1771 107.312 58.9119L108.445 59.2301C108.326 59.6146 108.125 59.9527 107.844 60.2443C107.562 60.5327 107.214 60.758 106.8 60.9205C106.385 61.0795 105.92 61.1591 105.403 61.1591ZM111.523 50.8182V61H110.349V50.8182H111.523ZM116.774 61.1591C116.084 61.1591 115.48 60.995 114.959 60.6669C114.442 60.3388 114.038 59.8797 113.746 59.2898C113.458 58.6998 113.314 58.0104 113.314 57.2216C113.314 56.4261 113.458 55.7318 113.746 55.1385C114.038 54.5452 114.442 54.0845 114.959 53.7564C115.48 53.4283 116.084 53.2642 116.774 53.2642C117.463 53.2642 118.066 53.4283 118.583 53.7564C119.104 54.0845 119.508 54.5452 119.797 55.1385C120.088 55.7318 120.234 56.4261 120.234 57.2216C120.234 58.0104 120.088 58.6998 119.797 59.2898C119.508 59.8797 119.104 60.3388 118.583 60.6669C118.066 60.995 117.463 61.1591 116.774 61.1591ZM116.774 60.1051C117.297 60.1051 117.728 59.9709 118.066 59.7024C118.404 59.4339 118.655 59.081 118.817 58.6435C118.98 58.206 119.061 57.732 119.061 57.2216C119.061 56.7112 118.98 56.2356 118.817 55.7947C118.655 55.3539 118.404 54.9976 118.066 54.7259C117.728 54.4541 117.297 54.3182 116.774 54.3182C116.25 54.3182 115.819 54.4541 115.481 54.7259C115.143 54.9976 114.893 55.3539 114.73 55.7947C114.568 56.2356 114.487 56.7112 114.487 57.2216C114.487 57.732 114.568 58.206 114.73 58.6435C114.893 59.081 115.143 59.4339 115.481 59.7024C115.819 59.9709 116.25 60.1051 116.774 60.1051ZM122.025 63.8636V53.3636H123.159V54.5767H123.298C123.384 54.4441 123.503 54.2751 123.656 54.0696C123.811 53.8608 124.034 53.6752 124.322 53.5128C124.614 53.3471 125.008 53.2642 125.505 53.2642C126.148 53.2642 126.715 53.425 127.205 53.7464C127.696 54.0679 128.079 54.5237 128.354 55.1136C128.629 55.7036 128.767 56.3996 128.767 57.2017C128.767 58.0104 128.629 58.7114 128.354 59.3047C128.079 59.8946 127.698 60.352 127.21 60.6768C126.723 60.9983 126.161 61.1591 125.525 61.1591C125.035 61.1591 124.642 61.0779 124.347 60.9155C124.052 60.7498 123.825 60.5625 123.666 60.3537C123.507 60.1416 123.384 59.9659 123.298 59.8267H123.198V63.8636H122.025ZM123.178 57.1818C123.178 57.7585 123.263 58.2673 123.432 58.7081C123.601 59.1456 123.848 59.4886 124.173 59.7372C124.498 59.9825 124.895 60.1051 125.366 60.1051C125.856 60.1051 126.266 59.9759 126.594 59.7173C126.925 59.4555 127.174 59.1042 127.34 58.6634C127.509 58.2192 127.593 57.7254 127.593 57.1818C127.593 56.6449 127.51 56.161 127.345 55.7301C127.182 55.2959 126.935 54.9529 126.604 54.701C126.276 54.4458 125.863 54.3182 125.366 54.3182C124.889 54.3182 124.488 54.4392 124.163 54.6811C123.838 54.9197 123.593 55.2545 123.427 55.6854C123.261 56.1129 123.178 56.6117 123.178 57.1818ZM133.758 61.1591C133.022 61.1591 132.387 60.9967 131.854 60.6719C131.324 60.3438 130.914 59.8864 130.626 59.2997C130.341 58.7098 130.198 58.0237 130.198 57.2415C130.198 56.4593 130.341 55.7699 130.626 55.1733C130.914 54.5734 131.315 54.1061 131.829 53.7713C132.346 53.4332 132.949 53.2642 133.639 53.2642C134.036 53.2642 134.429 53.3305 134.817 53.4631C135.205 53.5956 135.558 53.8111 135.876 54.1094C136.194 54.4044 136.448 54.7955 136.637 55.2827C136.825 55.7699 136.92 56.3698 136.92 57.0824V57.5795H131.034V56.5653H135.727C135.727 56.1345 135.641 55.75 135.468 55.4119C135.299 55.0739 135.057 54.8071 134.742 54.6115C134.431 54.416 134.063 54.3182 133.639 54.3182C133.171 54.3182 132.767 54.4342 132.426 54.6662C132.088 54.8949 131.827 55.1932 131.645 55.5611C131.463 55.929 131.372 56.3234 131.372 56.7443V57.4205C131.372 57.9972 131.471 58.486 131.67 58.8871C131.872 59.2848 132.152 59.5881 132.51 59.7969C132.868 60.0024 133.284 60.1051 133.758 60.1051C134.066 60.1051 134.345 60.062 134.593 59.9759C134.845 59.8864 135.062 59.7538 135.244 59.5781C135.427 59.3991 135.568 59.1771 135.667 58.9119L136.801 59.2301C136.681 59.6146 136.481 59.9527 136.199 60.2443C135.917 60.5327 135.569 60.758 135.155 60.9205C134.741 61.0795 134.275 61.1591 133.758 61.1591ZM138.705 61V53.3636H139.838V54.517H139.918C140.057 54.1392 140.309 53.8326 140.673 53.5973C141.038 53.362 141.449 53.2443 141.906 53.2443C141.993 53.2443 142.1 53.246 142.23 53.2493C142.359 53.2526 142.457 53.2576 142.523 53.2642V54.4574C142.483 54.4474 142.392 54.4325 142.249 54.4126C142.11 54.3894 141.963 54.3778 141.807 54.3778C141.436 54.3778 141.104 54.4557 140.813 54.6115C140.524 54.764 140.296 54.9761 140.127 55.2479C139.961 55.5163 139.878 55.8229 139.878 56.1676V61H138.705Z" fill="#ECEFF1"/>
<path d="M247.492 188.019C247.191 188.019 247.041 187.937 247.041 187.771V179.761C247.041 179.596 247.191 179.513 247.492 179.513H247.536C247.841 179.513 247.993 179.596 247.993 179.761V182.808C248.213 182.583 248.471 182.399 248.768 182.255C249.064 182.107 249.379 182.033 249.713 182.033C250.187 182.033 250.604 182.167 250.964 182.433C251.328 182.7 251.51 183.174 251.51 183.855V187.771C251.51 187.937 251.36 188.019 251.059 188.019H251.015C250.71 188.019 250.558 187.937 250.558 187.771V183.95C250.558 183.607 250.46 183.339 250.266 183.144C250.071 182.949 249.785 182.852 249.409 182.852C249.159 182.852 248.928 182.911 248.717 183.03C248.509 183.148 248.336 183.277 248.196 183.417C248.061 183.552 247.993 183.629 247.993 183.646V187.771C247.993 187.937 247.841 188.019 247.536 188.019H247.492ZM254.868 188.063C254.292 188.063 253.827 187.922 253.471 187.638C253.116 187.355 252.938 186.934 252.938 186.375C252.938 185.787 253.118 185.345 253.478 185.048C253.837 184.748 254.275 184.555 254.792 184.471C255.312 184.382 255.943 184.331 256.683 184.318V183.785C256.683 183.502 256.586 183.275 256.391 183.106C256.201 182.932 255.885 182.846 255.445 182.846C255.111 182.846 254.817 182.886 254.563 182.966C254.313 183.042 254.078 183.136 253.858 183.246C253.765 183.292 253.708 183.315 253.687 183.315C253.636 183.315 253.579 183.279 253.516 183.208C253.456 183.131 253.403 183.047 253.357 182.954C253.315 182.861 253.293 182.793 253.293 182.75C253.293 182.653 253.393 182.547 253.592 182.433C253.795 182.319 254.059 182.224 254.385 182.147C254.711 182.071 255.052 182.033 255.407 182.033C256.114 182.033 256.662 182.188 257.051 182.497C257.441 182.806 257.635 183.239 257.635 183.798V186.331C257.635 186.821 257.656 187.177 257.699 187.397C257.745 187.613 257.769 187.731 257.769 187.752C257.769 187.846 257.697 187.913 257.553 187.956C257.413 187.994 257.282 188.013 257.159 188.013C257.058 188.013 256.981 187.956 256.931 187.841C256.884 187.727 256.838 187.562 256.791 187.346L256.766 187.219C256.533 187.477 256.258 187.683 255.94 187.835C255.627 187.987 255.27 188.063 254.868 188.063ZM254.918 187.245C255.291 187.245 255.608 187.177 255.871 187.042C256.133 186.906 256.404 186.714 256.683 186.464V185.131C256.125 185.135 255.665 185.158 255.306 185.201C254.946 185.243 254.631 185.351 254.36 185.524C254.089 185.694 253.954 185.958 253.954 186.318C253.954 186.618 254.034 186.849 254.195 187.01C254.36 187.166 254.601 187.245 254.918 187.245ZM260.733 188.108C260.416 188.108 260.119 188.068 259.844 187.987C259.569 187.907 259.349 187.81 259.184 187.695C259.023 187.577 258.943 187.473 258.943 187.384C258.943 187.342 258.964 187.274 259.006 187.181C259.053 187.088 259.106 187.006 259.165 186.934C259.229 186.857 259.286 186.819 259.336 186.819C259.349 186.819 259.387 186.84 259.451 186.883C259.62 186.993 259.798 187.086 259.984 187.162C260.174 187.238 260.401 187.276 260.663 187.276C261.399 187.276 261.768 186.972 261.768 186.362C261.768 186.189 261.732 186.043 261.66 185.924C261.592 185.806 261.476 185.702 261.311 185.613C261.15 185.52 260.928 185.431 260.644 185.347C260.238 185.228 259.92 185.093 259.692 184.94C259.468 184.788 259.309 184.61 259.216 184.407C259.123 184.2 259.076 183.95 259.076 183.658C259.076 183.345 259.154 183.064 259.311 182.814C259.472 182.564 259.694 182.37 259.978 182.23C260.265 182.09 260.589 182.021 260.949 182.021C261.198 182.021 261.438 182.044 261.666 182.09C261.899 182.137 262.085 182.198 262.225 182.274C262.368 182.346 262.44 182.423 262.44 182.503C262.44 182.562 262.419 182.643 262.377 182.744C262.339 182.841 262.29 182.928 262.231 183.004C262.172 183.076 262.119 183.112 262.072 183.112C262.064 183.112 262.011 183.087 261.914 183.036C261.816 182.981 261.691 182.932 261.539 182.89C261.391 182.844 261.226 182.82 261.044 182.82C260.756 182.82 260.517 182.886 260.327 183.017C260.14 183.144 260.047 183.315 260.047 183.531C260.047 183.785 260.115 183.988 260.25 184.141C260.386 184.293 260.61 184.418 260.923 184.515C261.406 184.663 261.774 184.811 262.028 184.959C262.282 185.108 262.462 185.29 262.567 185.505C262.677 185.717 262.732 185.996 262.732 186.343C262.732 186.673 262.644 186.974 262.466 187.245C262.288 187.511 262.047 187.723 261.742 187.879C261.438 188.032 261.101 188.108 260.733 188.108ZM265.392 188.108C265.075 188.108 264.778 188.068 264.503 187.987C264.228 187.907 264.008 187.81 263.843 187.695C263.682 187.577 263.602 187.473 263.602 187.384C263.602 187.342 263.623 187.274 263.666 187.181C263.712 187.088 263.765 187.006 263.824 186.934C263.888 186.857 263.945 186.819 263.996 186.819C264.008 186.819 264.046 186.84 264.11 186.883C264.279 186.993 264.457 187.086 264.643 187.162C264.833 187.238 265.06 187.276 265.322 187.276C266.059 187.276 266.427 186.972 266.427 186.362C266.427 186.189 266.391 186.043 266.319 185.924C266.251 185.806 266.135 185.702 265.97 185.613C265.809 185.52 265.587 185.431 265.303 185.347C264.897 185.228 264.58 185.093 264.351 184.94C264.127 184.788 263.968 184.61 263.875 184.407C263.782 184.2 263.735 183.95 263.735 183.658C263.735 183.345 263.814 183.064 263.97 182.814C264.131 182.564 264.353 182.37 264.637 182.23C264.924 182.09 265.248 182.021 265.608 182.021C265.858 182.021 266.097 182.044 266.325 182.09C266.558 182.137 266.744 182.198 266.884 182.274C267.028 182.346 267.1 182.423 267.1 182.503C267.1 182.562 267.078 182.643 267.036 182.744C266.998 182.841 266.949 182.928 266.89 183.004C266.831 183.076 266.778 183.112 266.731 183.112C266.723 183.112 266.67 183.087 266.573 183.036C266.475 182.981 266.351 182.932 266.198 182.89C266.05 182.844 265.885 182.82 265.703 182.82C265.415 182.82 265.176 182.886 264.986 183.017C264.8 183.144 264.707 183.315 264.707 183.531C264.707 183.785 264.774 183.988 264.91 184.141C265.045 184.293 265.269 184.418 265.583 184.515C266.065 184.663 266.433 184.811 266.687 184.959C266.941 185.108 267.121 185.29 267.227 185.505C267.337 185.717 267.392 185.996 267.392 186.343C267.392 186.673 267.303 186.974 267.125 187.245C266.947 187.511 266.706 187.723 266.401 187.879C266.097 188.032 265.76 188.108 265.392 188.108ZM270.343 188.063C269.768 188.063 269.302 187.922 268.947 187.638C268.591 187.355 268.414 186.934 268.414 186.375C268.414 185.787 268.593 185.345 268.953 185.048C269.313 184.748 269.751 184.555 270.267 184.471C270.788 184.382 271.418 184.331 272.159 184.318V183.785C272.159 183.502 272.061 183.275 271.867 183.106C271.676 182.932 271.361 182.846 270.921 182.846C270.587 182.846 270.292 182.886 270.039 182.966C269.789 183.042 269.554 183.136 269.334 183.246C269.241 183.292 269.184 183.315 269.163 183.315C269.112 183.315 269.055 183.279 268.991 183.208C268.932 183.131 268.879 183.047 268.833 182.954C268.79 182.861 268.769 182.793 268.769 182.75C268.769 182.653 268.868 182.547 269.067 182.433C269.271 182.319 269.535 182.224 269.861 182.147C270.187 182.071 270.527 182.033 270.883 182.033C271.59 182.033 272.138 182.188 272.527 182.497C272.916 182.806 273.111 183.239 273.111 183.798V186.331C273.111 186.821 273.132 187.177 273.174 187.397C273.221 187.613 273.244 187.731 273.244 187.752C273.244 187.846 273.172 187.913 273.028 187.956C272.889 187.994 272.757 188.013 272.635 188.013C272.533 188.013 272.457 187.956 272.406 187.841C272.36 187.727 272.313 187.562 272.267 187.346L272.241 187.219C272.008 187.477 271.733 187.683 271.416 187.835C271.103 187.987 270.745 188.063 270.343 188.063ZM270.394 187.245C270.766 187.245 271.084 187.177 271.346 187.042C271.609 186.906 271.879 186.714 272.159 186.464V185.131C271.6 185.135 271.141 185.158 270.781 185.201C270.422 185.243 270.106 185.351 269.835 185.524C269.565 185.694 269.429 185.958 269.429 186.318C269.429 186.618 269.51 186.849 269.67 187.01C269.835 187.166 270.077 187.245 270.394 187.245ZM276.5 188.063C275.925 188.063 275.459 187.922 275.104 187.638C274.749 187.355 274.571 186.934 274.571 186.375C274.571 185.787 274.751 185.345 275.11 185.048C275.47 184.748 275.908 184.555 276.424 184.471C276.945 184.382 277.575 184.331 278.316 184.318V183.785C278.316 183.502 278.219 183.275 278.024 183.106C277.833 182.932 277.518 182.846 277.078 182.846C276.744 182.846 276.45 182.886 276.196 182.966C275.946 183.042 275.711 183.136 275.491 183.246C275.398 183.292 275.341 183.315 275.32 183.315C275.269 183.315 275.212 183.279 275.148 183.208C275.089 183.131 275.036 183.047 274.99 182.954C274.947 182.861 274.926 182.793 274.926 182.75C274.926 182.653 275.026 182.547 275.225 182.433C275.428 182.319 275.692 182.224 276.018 182.147C276.344 182.071 276.685 182.033 277.04 182.033C277.747 182.033 278.295 182.188 278.684 182.497C279.073 182.806 279.268 183.239 279.268 183.798V186.331C279.268 186.821 279.289 187.177 279.332 187.397C279.378 187.613 279.401 187.731 279.401 187.752C279.401 187.846 279.329 187.913 279.186 187.956C279.046 187.994 278.915 188.013 278.792 188.013C278.69 188.013 278.614 187.956 278.563 187.841C278.517 187.727 278.47 187.562 278.424 187.346L278.398 187.219C278.166 187.477 277.891 187.683 277.573 187.835C277.26 187.987 276.903 188.063 276.5 188.063ZM276.551 187.245C276.924 187.245 277.241 187.177 277.503 187.042C277.766 186.906 278.037 186.714 278.316 186.464V185.131C277.757 185.135 277.298 185.158 276.938 185.201C276.579 185.243 276.264 185.351 275.993 185.524C275.722 185.694 275.586 185.958 275.586 186.318C275.586 186.618 275.667 186.849 275.828 187.01C275.993 187.166 276.234 187.245 276.551 187.245ZM281.604 188.019C281.443 188.019 281.327 188 281.255 187.962C281.183 187.92 281.147 187.856 281.147 187.771V183.811C281.147 183.32 281.124 182.966 281.077 182.75C281.031 182.53 281.007 182.41 281.007 182.389C281.007 182.296 281.077 182.23 281.217 182.192C281.361 182.15 281.496 182.128 281.623 182.128C281.729 182.128 281.807 182.186 281.858 182.3C281.909 182.414 281.945 182.53 281.966 182.649C281.991 182.767 282.008 182.844 282.017 182.877C282.254 182.611 282.527 182.403 282.835 182.255C283.149 182.107 283.464 182.033 283.781 182.033C284.357 182.033 284.805 182.196 285.127 182.522C285.453 182.844 285.616 183.288 285.616 183.855V187.771C285.616 187.856 285.58 187.92 285.508 187.962C285.436 188 285.322 188.019 285.165 188.019H285.114C284.962 188.019 284.85 188 284.778 187.962C284.706 187.92 284.67 187.856 284.67 187.771V183.95C284.67 183.603 284.568 183.334 284.365 183.144C284.166 182.949 283.885 182.852 283.521 182.852C283.267 182.852 283.011 182.924 282.753 183.068C282.499 183.208 282.279 183.4 282.093 183.646V187.771C282.093 187.856 282.057 187.92 281.985 187.962C281.913 188 281.801 188.019 281.648 188.019H281.604ZM292.484 180.04C293.233 180.04 293.891 180.192 294.458 180.497C295.025 180.802 295.463 181.231 295.772 181.786C296.085 182.34 296.242 182.981 296.242 183.709C296.242 184.39 296.14 185.01 295.937 185.569C295.738 186.127 295.459 186.57 295.099 186.896C294.744 187.221 294.337 187.384 293.88 187.384C293.648 187.384 293.447 187.342 293.277 187.257C293.112 187.173 292.985 187.061 292.896 186.921C292.808 186.777 292.763 186.62 292.763 186.451V186.375C292.569 186.722 292.34 186.978 292.078 187.143C291.819 187.304 291.538 187.384 291.233 187.384C290.979 187.384 290.73 187.323 290.484 187.2C290.239 187.077 290.029 186.864 289.856 186.559C289.687 186.254 289.602 185.846 289.602 185.334C289.602 184.746 289.699 184.223 289.894 183.766C290.093 183.305 290.372 182.945 290.732 182.687C291.092 182.429 291.508 182.3 291.982 182.3C292.253 182.3 292.492 182.355 292.7 182.465C292.911 182.571 293.089 182.693 293.233 182.833L293.296 182.655C293.339 182.533 293.379 182.45 293.417 182.408C293.455 182.361 293.525 182.338 293.626 182.338H293.696C293.785 182.338 293.849 182.357 293.887 182.395C293.925 182.433 293.944 182.492 293.944 182.573C293.906 182.937 293.834 183.624 293.728 184.636C293.626 185.647 293.576 186.208 293.576 186.318C293.576 186.631 293.724 186.788 294.02 186.788C294.295 186.788 294.555 186.646 294.801 186.362C295.05 186.075 295.251 185.694 295.404 185.22C295.556 184.746 295.632 184.242 295.632 183.709C295.632 183.083 295.501 182.53 295.239 182.052C294.976 181.57 294.606 181.197 294.128 180.935C293.654 180.673 293.106 180.542 292.484 180.542C291.663 180.542 290.912 180.753 290.23 181.176C289.549 181.599 289.01 182.177 288.612 182.909C288.218 183.637 288.021 184.443 288.021 185.328C288.021 186.034 288.151 186.661 288.409 187.207C288.667 187.748 289.027 188.169 289.488 188.47C289.953 188.774 290.486 188.927 291.087 188.927C291.409 188.927 291.674 188.903 291.881 188.857C292.092 188.81 292.298 188.751 292.497 188.679C292.518 188.671 292.564 188.654 292.636 188.628C292.712 188.607 292.776 188.597 292.827 188.597C292.928 188.597 292.979 188.683 292.979 188.857C292.979 188.992 292.869 189.102 292.649 189.187C292.429 189.276 292.171 189.337 291.875 189.371C291.583 189.409 291.32 189.428 291.087 189.428C290.364 189.428 289.723 189.255 289.164 188.908C288.61 188.565 288.178 188.085 287.869 187.467C287.564 186.845 287.412 186.132 287.412 185.328C287.412 184.354 287.636 183.464 288.085 182.655C288.534 181.847 289.145 181.21 289.919 180.745C290.694 180.275 291.549 180.04 292.484 180.04ZM292.896 184.852C292.973 184.039 293.036 183.55 293.087 183.385C292.778 183.127 292.431 182.998 292.046 182.998C291.453 182.998 291.035 183.212 290.789 183.639C290.544 184.067 290.421 184.615 290.421 185.283C290.421 185.787 290.512 186.149 290.694 186.369C290.876 186.589 291.117 186.699 291.417 186.699C291.671 186.699 291.93 186.576 292.192 186.331C292.458 186.085 292.685 185.679 292.871 185.112L292.896 184.852ZM300.311 190.393C299.591 190.393 299.022 190.281 298.603 190.057C298.184 189.832 297.975 189.479 297.975 188.997C297.975 188.667 298.07 188.379 298.26 188.133C298.451 187.888 298.698 187.704 299.003 187.581L299.016 187.556C298.868 187.441 298.753 187.31 298.673 187.162C298.597 187.014 298.559 186.838 298.559 186.635C298.559 186.144 298.77 185.751 299.193 185.455C298.876 185.302 298.635 185.089 298.47 184.813C298.305 184.534 298.222 184.221 298.222 183.874C298.222 183.527 298.307 183.214 298.476 182.935C298.65 182.655 298.903 182.435 299.238 182.274C299.572 182.114 299.974 182.033 300.444 182.033C300.694 182.033 300.916 182.054 301.11 182.097H303.161C303.241 182.097 303.298 182.124 303.332 182.179C303.37 182.23 303.389 182.315 303.389 182.433V182.573C303.389 182.691 303.37 182.778 303.332 182.833C303.298 182.884 303.241 182.909 303.161 182.909C302.877 182.909 302.615 182.899 302.374 182.877L302.361 182.896C302.458 183.032 302.53 183.184 302.577 183.354C302.627 183.519 302.653 183.692 302.653 183.874C302.653 184.221 302.566 184.534 302.393 184.813C302.223 185.093 301.972 185.313 301.637 185.474C301.307 185.634 300.905 185.715 300.431 185.715C300.076 185.728 299.807 185.793 299.625 185.912C299.447 186.03 299.358 186.225 299.358 186.496C299.358 186.694 299.422 186.847 299.549 186.953C299.68 187.058 299.843 187.132 300.038 187.175C300.232 187.217 300.503 187.257 300.85 187.295L301.18 187.333C301.531 187.38 301.826 187.444 302.062 187.524C302.299 187.604 302.494 187.738 302.646 187.924C302.803 188.11 302.881 188.366 302.881 188.692C302.881 189.238 302.663 189.657 302.228 189.949C301.792 190.245 301.153 190.393 300.311 190.393ZM300.431 184.966C300.846 184.966 301.176 184.881 301.421 184.712C301.667 184.543 301.79 184.265 301.79 183.88C301.79 183.153 301.337 182.789 300.431 182.789C299.538 182.789 299.092 183.153 299.092 183.88C299.092 184.265 299.212 184.543 299.454 184.712C299.699 184.881 300.025 184.966 300.431 184.966ZM300.431 189.625C300.956 189.625 301.345 189.555 301.599 189.416C301.853 189.28 301.98 189.073 301.98 188.793C301.98 188.611 301.912 188.47 301.777 188.368C301.641 188.271 301.474 188.201 301.275 188.159C301.081 188.121 300.823 188.085 300.501 188.051C300.281 188.025 300.099 188.002 299.955 187.981C299.815 187.96 299.686 187.93 299.568 187.892C299.069 188.104 298.819 188.41 298.819 188.812C298.819 189.354 299.356 189.625 300.431 189.625ZM310.575 182.033C311.044 182.033 311.457 182.167 311.812 182.433C312.168 182.7 312.346 183.174 312.346 183.855V187.771C312.346 187.856 312.31 187.92 312.238 187.962C312.166 188 312.052 188.019 311.895 188.019H311.857C311.696 188.019 311.58 188 311.508 187.962C311.436 187.92 311.4 187.856 311.4 187.771V183.95C311.4 183.607 311.307 183.339 311.121 183.144C310.939 182.949 310.67 182.852 310.314 182.852C310.018 182.852 309.75 182.939 309.508 183.112C309.271 183.282 309.079 183.459 308.931 183.646C308.939 183.747 308.943 183.823 308.943 183.874V187.771C308.943 187.937 308.791 188.019 308.486 188.019H308.442C308.141 188.019 307.991 187.937 307.991 187.771V183.95C307.991 183.607 307.898 183.339 307.712 183.144C307.53 182.949 307.261 182.852 306.906 182.852C306.66 182.852 306.436 182.911 306.233 183.03C306.03 183.144 305.861 183.269 305.725 183.404C305.594 183.54 305.528 183.616 305.528 183.633V187.771C305.528 187.856 305.492 187.92 305.42 187.962C305.353 188 305.241 188.019 305.084 188.019H305.033C304.877 188.019 304.762 188 304.69 187.962C304.623 187.92 304.589 187.856 304.589 187.771V183.811C304.589 183.32 304.566 182.966 304.519 182.75C304.472 182.53 304.449 182.41 304.449 182.389C304.449 182.296 304.519 182.23 304.659 182.192C304.803 182.15 304.936 182.128 305.059 182.128C305.164 182.128 305.243 182.186 305.293 182.3C305.344 182.414 305.38 182.53 305.401 182.649C305.427 182.767 305.444 182.844 305.452 182.877C305.66 182.636 305.913 182.435 306.214 182.274C306.514 182.114 306.832 182.033 307.166 182.033C307.509 182.033 307.828 182.103 308.125 182.243C308.421 182.378 308.639 182.619 308.778 182.966C309.011 182.691 309.284 182.467 309.597 182.293C309.91 182.12 310.236 182.033 310.575 182.033ZM315.678 188.063C315.103 188.063 314.637 187.922 314.282 187.638C313.926 187.355 313.749 186.934 313.749 186.375C313.749 185.787 313.928 185.345 314.288 185.048C314.648 184.748 315.086 184.555 315.602 184.471C316.123 184.382 316.753 184.331 317.494 184.318V183.785C317.494 183.502 317.396 183.275 317.202 183.106C317.011 182.932 316.696 182.846 316.256 182.846C315.922 182.846 315.627 182.886 315.374 182.966C315.124 183.042 314.889 183.136 314.669 183.246C314.576 183.292 314.519 183.315 314.498 183.315C314.447 183.315 314.39 183.279 314.326 183.208C314.267 183.131 314.214 183.047 314.167 182.954C314.125 182.861 314.104 182.793 314.104 182.75C314.104 182.653 314.203 182.547 314.402 182.433C314.605 182.319 314.87 182.224 315.196 182.147C315.522 182.071 315.862 182.033 316.218 182.033C316.924 182.033 317.472 182.188 317.862 182.497C318.251 182.806 318.446 183.239 318.446 183.798V186.331C318.446 186.821 318.467 187.177 318.509 187.397C318.556 187.613 318.579 187.731 318.579 187.752C318.579 187.846 318.507 187.913 318.363 187.956C318.224 187.994 318.092 188.013 317.97 188.013C317.868 188.013 317.792 187.956 317.741 187.841C317.695 187.727 317.648 187.562 317.602 187.346L317.576 187.219C317.343 187.477 317.068 187.683 316.751 187.835C316.438 187.987 316.08 188.063 315.678 188.063ZM315.729 187.245C316.101 187.245 316.419 187.177 316.681 187.042C316.944 186.906 317.214 186.714 317.494 186.464V185.131C316.935 185.135 316.476 185.158 316.116 185.201C315.757 185.243 315.441 185.351 315.17 185.524C314.9 185.694 314.764 185.958 314.764 186.318C314.764 186.618 314.845 186.849 315.005 187.01C315.17 187.166 315.412 187.245 315.729 187.245ZM320.788 180.675C320.488 180.675 320.337 180.592 320.337 180.427V179.761C320.337 179.596 320.488 179.513 320.788 179.513H320.921C321.226 179.513 321.378 179.596 321.378 179.761V180.427C321.378 180.592 321.226 180.675 320.921 180.675H320.788ZM320.833 188.019C320.532 188.019 320.382 187.937 320.382 187.771V182.325C320.382 182.16 320.532 182.078 320.833 182.078H320.877C321.182 182.078 321.334 182.16 321.334 182.325V187.771C321.334 187.937 321.182 188.019 320.877 188.019H320.833ZM324.73 188.063C324.353 188.063 324.017 187.949 323.721 187.721C323.424 187.492 323.276 187.088 323.276 186.508V179.761C323.276 179.596 323.427 179.513 323.727 179.513H323.778C324.074 179.513 324.222 179.596 324.222 179.761V186.419C324.222 186.728 324.277 186.944 324.387 187.067C324.497 187.19 324.645 187.251 324.832 187.251C324.971 187.251 325.081 187.243 325.162 187.226C325.242 187.209 325.295 187.2 325.32 187.2C325.388 187.2 325.443 187.268 325.485 187.403C325.532 187.539 325.555 187.647 325.555 187.727C325.555 187.951 325.28 188.063 324.73 188.063ZM326.742 188.019C326.586 188.019 326.471 188 326.399 187.962C326.327 187.92 326.292 187.856 326.292 187.771V187.029C326.292 186.864 326.442 186.781 326.742 186.781H326.933C327.233 186.781 327.383 186.864 327.383 187.029V187.771C327.383 187.856 327.347 187.92 327.275 187.962C327.203 188 327.089 188.019 326.933 188.019H326.742ZM331.325 188.063C330.39 188.063 329.692 187.824 329.23 187.346C328.773 186.864 328.545 186.089 328.545 185.023C328.545 183.944 328.801 183.176 329.313 182.719C329.825 182.262 330.462 182.033 331.224 182.033C331.507 182.033 331.78 182.059 332.042 182.109C332.305 182.156 332.516 182.219 332.677 182.3C332.838 182.38 332.918 182.465 332.918 182.554C332.918 182.613 332.897 182.691 332.855 182.789C332.817 182.886 332.768 182.973 332.709 183.049C332.654 183.121 332.603 183.157 332.557 183.157C332.544 183.157 332.525 183.153 332.5 183.144C332.474 183.131 332.451 183.121 332.43 183.112C332.049 182.935 331.638 182.846 331.198 182.846C330.678 182.846 330.276 183.017 329.992 183.36C329.709 183.698 329.567 184.244 329.567 184.998C329.567 185.531 329.624 185.962 329.738 186.292C329.853 186.618 330.037 186.86 330.291 187.016C330.549 187.173 330.891 187.251 331.319 187.251C331.789 187.251 332.212 187.154 332.588 186.959C332.626 186.951 332.654 186.942 332.671 186.934C332.692 186.921 332.707 186.915 332.715 186.915C332.762 186.915 332.815 186.951 332.874 187.022C332.933 187.094 332.984 187.177 333.026 187.27C333.073 187.363 333.096 187.437 333.096 187.492C333.096 187.581 333.016 187.67 332.855 187.759C332.694 187.848 332.476 187.922 332.201 187.981C331.93 188.036 331.638 188.063 331.325 188.063ZM336.67 188.063C335.819 188.063 335.17 187.81 334.721 187.302C334.277 186.79 334.055 186.047 334.055 185.074C334.055 184.1 334.281 183.351 334.734 182.827C335.187 182.298 335.832 182.033 336.67 182.033C337.499 182.033 338.134 182.296 338.574 182.82C339.014 183.341 339.234 184.092 339.234 185.074C339.234 186.051 339.016 186.794 338.581 187.302C338.149 187.81 337.512 188.063 336.67 188.063ZM336.638 187.251C337.188 187.251 337.595 187.073 337.857 186.718C338.119 186.358 338.25 185.804 338.25 185.055C338.25 184.301 338.119 183.745 337.857 183.385C337.595 183.026 337.188 182.846 336.638 182.846C336.092 182.846 335.69 183.026 335.432 183.385C335.174 183.741 335.045 184.297 335.045 185.055C335.045 185.808 335.172 186.362 335.426 186.718C335.684 187.073 336.088 187.251 336.638 187.251ZM346.807 182.033C347.277 182.033 347.689 182.167 348.045 182.433C348.4 182.7 348.578 183.174 348.578 183.855V187.771C348.578 187.856 348.542 187.92 348.47 187.962C348.398 188 348.284 188.019 348.127 188.019H348.089C347.929 188.019 347.812 188 347.74 187.962C347.668 187.92 347.632 187.856 347.632 187.771V183.95C347.632 183.607 347.539 183.339 347.353 183.144C347.171 182.949 346.902 182.852 346.547 182.852C346.251 182.852 345.982 182.939 345.741 183.112C345.504 183.282 345.311 183.459 345.163 183.646C345.172 183.747 345.176 183.823 345.176 183.874V187.771C345.176 187.937 345.023 188.019 344.719 188.019H344.674C344.374 188.019 344.224 187.937 344.224 187.771V183.95C344.224 183.607 344.131 183.339 343.944 183.144C343.762 182.949 343.494 182.852 343.138 182.852C342.893 182.852 342.668 182.911 342.465 183.03C342.262 183.144 342.093 183.269 341.958 183.404C341.826 183.54 341.761 183.616 341.761 183.633V187.771C341.761 187.856 341.725 187.92 341.653 187.962C341.585 188 341.473 188.019 341.316 188.019H341.266C341.109 188.019 340.995 188 340.923 187.962C340.855 187.92 340.821 187.856 340.821 187.771V183.811C340.821 183.32 340.798 182.966 340.751 182.75C340.705 182.53 340.682 182.41 340.682 182.389C340.682 182.296 340.751 182.23 340.891 182.192C341.035 182.15 341.168 182.128 341.291 182.128C341.397 182.128 341.475 182.186 341.526 182.3C341.577 182.414 341.613 182.53 341.634 182.649C341.659 182.767 341.676 182.844 341.685 182.877C341.892 182.636 342.146 182.435 342.446 182.274C342.747 182.114 343.064 182.033 343.398 182.033C343.741 182.033 344.061 182.103 344.357 182.243C344.653 182.378 344.871 182.619 345.011 182.966C345.243 182.691 345.516 182.467 345.83 182.293C346.143 182.12 346.469 182.033 346.807 182.033Z" fill="#F6F6F6" fill-opacity="0.98"/>
</g>
<defs>
<clipPath id="clip0_1_3">
<rect width="360" height="200" fill="white"/>
</clipPath>
</defs>
</svg>
